<!-- Generated by IcoMoon.io -->
<svg version="1.1" xmlns="http://www.w3.org/2000/svg" width="64" height="64" viewBox="0 0 64 64">
<path d="M54.925 17.875h-12.163c-1.075-1.988-2.587-3.75-4.388-5.125-2.337-1.75-2.525-4.088-2.725-6.55l-0.013-0.213c-0.038-0.4-0.063-0.787-0.112-1.175l-0.45-3.612-2.575 2.563c-0.138 0.138-0.475 0.438-0.813 0.737l-0.063 0.050c-1.438 1.263-4.1 3.625-6.3 6.375-1.9 2.375-3.325 4.713-4.238 6.925h-12.012c-4.725 0-8.563 3.85-8.563 8.563v27.188c0 4.712 3.838 8.55 8.563 8.563h45.837c4.712 0 8.55-3.837 8.563-8.563v-27.163c0-4.712-3.837-8.55-8.55-8.563zM24.125 20.2l0.525-1.575c0.8-1.75 1.962-3.588 3.45-5.45 1.313-1.575 2.738-3.075 4.238-4.475 0.325 2.162 1.125 4.813 3.888 6.9 1.638 1.25 2.95 2.913 3.813 4.788l0.475 1.075 0.050-0.025c0.6 1.813 0.575 3.5-0.075 5-0.35 0.837-0.913 1.613-1.663 2.313 0.087-0.637 0.087-1.288 0.025-1.925-0.263-2.7-1.837-5.262-4.55-7.4l-1.962-1.538-0.825 2.363-0.025 0.075c-0.025 0.087-0.063 0.175-0.087 0.275l-0.012 0.050c-0.35 1.038-1.15 3.45-2.438 3.875-1.613 0.538-2.725 1.462-3.313 2.725-0.238 0.525-0.387 1.1-0.45 1.712-1.813-2.438-2.175-5.375-1.063-8.762v0zM33.9 31.262l-0.013 0.012c-0.2 0.238-0.4 0.462-0.6 0.675l-2.825 3.113-0.063-0.175-0.712-1.925c-0.038-0.112-0.087-0.212-0.125-0.337l-0.050-0.112c-0.4-1.050-1.075-2.8-0.65-3.725 0.175-0.363 0.575-0.65 1.225-0.863 1.563-0.512 2.85-1.837 3.825-3.913 0.825 1.025 1.3 2.113 1.4 3.163 0.125 1.488-0.4 2.988-1.413 4.088zM30.363 36.325v0.212l0.988-0.35 3.862-1.362c4.35-1.538 7.212-3.887 8.538-6.975 0.837-1.95 1-4.15 0.487-6.4h10.688c2.75 0 5 2.238 5 5v27.188c0 2.75-2.25 5-5 5h-45.85c-2.75 0-5-2.25-5-5v-27.2c0.013-2.75 2.25-4.988 5-5h11.075c-1.5 8.55 5.3 13.050 7.225 13.8l2.438 0.95 0.55 0.138z"></path>
<path d="M26.538 40.763h10.913v10.913h-10.913v-10.913z"></path>
<path d="M12.5 40.763h10.913v10.913h-10.912v-10.913z"></path>
<path d="M40.587 40.763h10.913v10.913h-10.913v-10.913z"></path>
</svg>
